<svg xmlns="http://www.w3.org/2000/svg" viewBox="0 0 102.78 141.73"><defs><style>.cls-1{fill:#d8d9d7;}</style></defs><g id="Layer_2" data-name="Layer 2"><g id="Logo"><path class="cls-1" d="M86.57,10.47H63.5a12.23,12.23,0,0,0-24.21,0H16.21A16.23,16.23,0,0,0,0,26.68v98.84a16.23,16.23,0,0,0,16.21,16.21H86.57a16.23,16.23,0,0,0,16.21-16.21V26.68A16.23,16.23,0,0,0,86.57,10.47ZM78.09,68.34,46,102.69a1.77,1.77,0,0,1-1.29.56,1.74,1.74,0,0,1-1.19-.47L24.79,85.47a1.76,1.76,0,1,1,2.39-2.59L44.6,99,75.52,65.94a1.76,1.76,0,0,1,2.57,2.4ZM40.92,14a1.76,1.76,0,0,0,1.76-1.76,8.71,8.71,0,0,1,17.42,0A1.76,1.76,0,0,0,61.86,14h9.69V30.9H31.23V14Z"/></g></g></svg>