<svg xmlns="http://www.w3.org/2000/svg" viewBox="0 0 24 24"><defs><style>.cls-1{fill:#d8d9d7;}</style></defs><g id="Layer_2" data-name="Layer 2"><g id="Logo"><path class="cls-1" d="M23.22.78A2.59,2.59,0,0,0,21.33,0H2.67A2.59,2.59,0,0,0,.78.78,2.59,2.59,0,0,0,0,2.67V21.33a2.59,2.59,0,0,0,.78,1.89A2.59,2.59,0,0,0,2.67,24H21.33A2.66,2.66,0,0,0,24,21.33V2.67A2.59,2.59,0,0,0,23.22.78Zm-8.94,17.5a1.27,1.27,0,0,1-.95.39H6.67a1.33,1.33,0,0,1-1.34-1.34A1.31,1.31,0,0,1,6.67,16h6.66a1.31,1.31,0,0,1,1.34,1.33A1.27,1.27,0,0,1,14.28,18.28Zm4-5.33a1.26,1.26,0,0,1-1,.38H6.67a1.26,1.26,0,0,1-1-.38,1.35,1.35,0,0,1,0-1.9,1.26,1.26,0,0,1,1-.38H17.33a1.26,1.26,0,0,1,1,.38,1.35,1.35,0,0,1,0,1.9Zm0-5.33a1.3,1.3,0,0,1-1,.38H6.67A1.31,1.31,0,0,1,5.33,6.67,1.33,1.33,0,0,1,6.67,5.33H17.33a1.33,1.33,0,0,1,1.34,1.34A1.3,1.3,0,0,1,18.28,7.62Z"/></g></g></svg>