<svg xmlns="http://www.w3.org/2000/svg" viewBox="0 0 229.03 143.15"><defs><style>.cls-1,.cls-2{fill:#d8d9d7;}.cls-1{stroke:#fff;stroke-miterlimit:10;stroke-width:2.83px;}</style></defs><g id="Layer_2" data-name="Layer 2"><g id="Logo"><path class="cls-1" d="M213.89,16H105a7.12,7.12,0,0,0-7.19,7V88.27a7.12,7.12,0,0,0,7.19,7H213.89a7.13,7.13,0,0,0,7.2-7V23A7.12,7.12,0,0,0,213.89,16ZM192.82,74.76H122.29a1.1,1.1,0,1,1,0-2.19h70.53a1.1,1.1,0,1,1,0,2.19ZM130.38,56.9a1.11,1.11,0,0,1,1.12-1.1h16.61a1.1,1.1,0,1,1,0,2.2H131.5A1.11,1.11,0,0,1,130.38,56.9Zm26.52,0A1.11,1.11,0,0,1,158,55.8h26.33a1.1,1.1,0,1,1,0,2.2H158A1.11,1.11,0,0,1,156.9,56.9Zm35.92-11.07H123.23a1.1,1.1,0,1,1,0-2.19h69.59a1.1,1.1,0,1,1,0,2.19Z"/><rect class="cls-1" x="91.91" y="9.36" width="135.7" height="13.31"/><circle class="cls-2" cx="40.63" cy="20.4" r="20.4"/><path class="cls-1" d="M18.37,127.48H66a4.09,4.09,0,0,0,4.09-4.09V66.88h46.13a8.48,8.48,0,0,0,8.48-8.47h0a8.48,8.48,0,0,0-8.48-8.48H28.37c-14.88,0-26.95,9-26.95,20v63.3a8.48,8.48,0,0,0,17,0V77.89"/></g></g></svg>