<svg xmlns="http://www.w3.org/2000/svg" viewBox="0 0 113.39 46.92"><defs><style>.cls-1{fill:#d8d9d7;}</style></defs><g id="Layer_2" data-name="Layer 2"><g id="Logo"><path class="cls-1" d="M99.26,44.68a74.76,74.76,0,0,1-13.9-2c-9.22-2-18.38-4.88-28.14-6.07A109.24,109.24,0,0,0,42.65,36a136,136,0,0,0-14.44,1.21A249,249,0,0,0,0,42.76c9.57-.6,19.08-1.65,28.54-2.27a148,148,0,0,1,28.17.39,136.27,136.27,0,0,1,13.9,2.43c4.68.91,9.35,2,14.14,2.67a63.22,63.22,0,0,0,14.56.81,50.19,50.19,0,0,0,14.08-3.35A66.47,66.47,0,0,1,99.26,44.68Z"/><path class="cls-1" d="M51.67,20c-1-.17-2.07-.31-3.1-.44-1.69-.2-3.59-.36-5.63-.48v5.67c3,.08,6,.25,8.73.54Z"/><path class="cls-1" d="M41.42,19c-2.71-.13-5.65-.19-8.72-.2v6c2.94-.08,5.87-.12,8.72-.07Z"/><path class="cls-1" d="M61.91,22.11c-.68-.17-1.35-.35-2-.51q-3.33-.81-6.69-1.38v5.22c2.91.36,5.83.86,8.73,1.47Z"/><path class="cls-1" d="M31.18,18.78c-2.84,0-5.78.06-8.72.14v6.36c2.86-.2,5.79-.36,8.72-.47Z"/><path class="cls-1" d="M72.15,25.13q-4.2-1.41-8.73-2.63v4.71l.31.06c3,.69,5.78,1.38,8.42,2.06Z"/><path class="cls-1" d="M82.39,25.28l-.75-.5a63.59,63.59,0,0,0-8-4.53v3.57c3.07,1.06,6,2.2,8.72,3.4Z"/><path class="cls-1" d="M72.15,19.54a92.69,92.69,0,0,0-8.73-3.42v4.6c3,.79,5.93,1.67,8.73,2.6Z"/><path class="cls-1" d="M51.67,12.94c-2.23-.45-4.47-.84-6.68-1.13-.63-.08-1.32-.16-2.05-.22v5.74c2.12.12,4.09.28,5.84.49,1,.12,1.92.25,2.89.4Z"/><path class="cls-1" d="M20.94,19c-2.94.1-5.87.22-8.73.37v6.82c2.78-.28,5.71-.54,8.73-.76Z"/><path class="cls-1" d="M82.39,29.1c-2.72-1.22-5.64-2.38-8.72-3.46v4.09c3.14.83,6,1.65,8.72,2.44Z"/><path class="cls-1" d="M61.91,15.62c-2.85-.91-5.78-1.7-8.73-2.35v5.2c2.37.4,4.75.88,7.1,1.45l1.63.41Z"/><path class="cls-1" d="M20.94,10.91c-2.9,0-5.84,0-8.73.08V17.6c2.86-.14,5.79-.27,8.73-.36Z"/><path class="cls-1" d="M41.42,11.46c-2.52-.2-5.48-.34-8.72-.42v6c3.06,0,6,.07,8.72.19Z"/><path class="cls-1" d="M31.18,11c-2.78-.06-5.72-.09-8.72-.09v6.28c2.94-.08,5.88-.13,8.72-.13Z"/><path class="cls-1" d="M10.7,28.25c-3.19.33-6.14.68-8.73,1v7.51l8.73-1.35Z"/><path class="cls-1" d="M42.94,32.25c2.92,0,5.82,0,8.73.23V27.2c-2.76-.29-5.69-.47-8.73-.55Z"/><path class="cls-1" d="M53.18,32.59c2.89.23,5.79.57,8.73,1V28.88c-2.9-.62-5.82-1.12-8.73-1.48Z"/><path class="cls-1" d="M32.7,32.73c2.95-.23,5.85-.38,8.72-.45V26.62c-2.85,0-5.78,0-8.72.08Z"/><path class="cls-1" d="M63.42,33.89c1.25.22,2.5.47,3.76.74l5,1.1V31.34c-2.73-.72-5.62-1.44-8.73-2.15Z"/><path class="cls-1" d="M22.46,33.78c3-.37,5.87-.68,8.72-.93v-6.1c-2.93.11-5.86.27-8.72.47Z"/><path class="cls-1" d="M73.67,36.06l.82.19c2.84.64,5.45,1.22,7.9,1.73v-3.8c-2.68-.78-5.58-1.61-8.72-2.45Z"/><path class="cls-1" d="M12.21,35.2q4.48-.68,8.73-1.22V27.33c-3,.22-6,.49-8.73.76Z"/><path class="cls-1" d="M10.7,19.41c-3.06.17-6,.36-8.73.56V27.3c2.59-.32,5.55-.67,8.73-1Z"/><path class="cls-1" d="M10.7,11c-3,.06-6,.12-8.73.2v7c2.73-.2,5.67-.39,8.73-.56Z"/><path class="cls-1" d="M45,7.52c13.38,1.75,27.49,7,36.72,13.28l.68.46V18.43c-2.74-1.74-12.68-7.74-13.59-8.69-3.08-3.22-7.16-7.16-10.53-8.28C51-1,45.31,0,39,1.64c-7.45,1.91-8.06,2.05-12.49,2C13.66,3.54,10.52,3.43,2,4v3C16.4,6.51,36.06,6.35,45,7.52Z"/></g></g></svg>