<svg xmlns="http://www.w3.org/2000/svg" viewBox="0 0 145.17 141.73"><defs><style>.cls-1{fill:#d8d9d7;}</style></defs><g id="Layer_2" data-name="Layer 2"><g id="Logo"><path class="cls-1" d="M40.32,66.84a1.8,1.8,0,0,1-1.62-1l-16-32.31-16,32.31a1.81,1.81,0,0,1-3.24-1.61L22.69,25.4,41.93,64.23a1.8,1.8,0,0,1-.81,2.42A1.77,1.77,0,0,1,40.32,66.84Z"/><path class="cls-1" d="M41.67,68.94a19,19,0,1,1-38,0"/><path class="cls-1" d="M140.11,66.84a1.8,1.8,0,0,1-1.62-1l-16-32.31-16,32.31a1.8,1.8,0,1,1-3.23-1.61L122.48,25.4l19.25,38.83a1.81,1.81,0,0,1-.82,2.42A1.77,1.77,0,0,1,140.11,66.84Z"/><path class="cls-1" d="M141.46,68.94a19,19,0,1,1-38,0"/><rect class="cls-1" x="31.5" y="126.41" width="82.17" height="5.42"/><rect class="cls-1" x="21.87" y="136.31" width="101.42" height="5.42"/><path class="cls-1" d="M143.36,19.25H81.1a8.73,8.73,0,0,0-6.71-6.71V1.81a1.81,1.81,0,1,0-3.61,0V12.54a8.73,8.73,0,0,0-6.71,6.71H1.81a1.81,1.81,0,1,0,0,3.62H64.07a8.73,8.73,0,0,0,6.71,6.71v86.94H41v5.42h63.19v-5.42H74.39V29.58a8.73,8.73,0,0,0,6.71-6.71h62.26a1.81,1.81,0,0,0,0-3.62ZM72.58,26.16a5.1,5.1,0,1,1,5.1-5.1A5.11,5.11,0,0,1,72.58,26.16Z"/></g></g></svg>