<svg xmlns="http://www.w3.org/2000/svg" viewBox="0 0 195.38 141.73"><defs><style>.cls-1{fill:#d8d9d7;}</style></defs><g id="Layer_2" data-name="Layer 2"><g id="Logo"><circle class="cls-1" cx="133.75" cy="32.06" r="32.06"/><path class="cls-1" d="M195.38,141.73V110c0-17.39-19-31.48-42.37-31.48H114.49c-23.4,0-42.37,14.09-42.37,31.48v31.76Z"/><path class="cls-1" d="M85.14,0H7.22A7,7,0,0,0,0,6.67v16.7A7,7,0,0,0,7.22,30h53a1.37,1.37,0,0,1,.94.38l9.25,9.07a1.34,1.34,0,0,0,2.27-1V31.38A1.34,1.34,0,0,1,74,30H85.14a7,7,0,0,0,7.22-6.67V6.67A7,7,0,0,0,85.14,0Zm-56,17.85H15.39a2.21,2.21,0,0,1-2.29-2.12,2.21,2.21,0,0,1,2.29-2.12H29.1a2.22,2.22,0,0,1,2.3,2.12A2.22,2.22,0,0,1,29.1,17.85Zm47.33,0H38.19a2.21,2.21,0,0,1-2.29-2.12,2.21,2.21,0,0,1,2.29-2.12H76.43a2.22,2.22,0,0,1,2.3,2.12A2.22,2.22,0,0,1,76.43,17.85Z"/></g></g></svg>