<svg xmlns="http://www.w3.org/2000/svg" viewBox="0 0 131.65 141.73"><defs><style>.cls-1{fill:#d8d9d7;}</style></defs><g id="Layer_2" data-name="Layer 2"><g id="Logo"><path class="cls-1" d="M88.06,91.29a56,56,0,0,0-9.39,8.47,4.61,4.61,0,0,1-6.1.77,136.16,136.16,0,0,1-35.08-36,4.62,4.62,0,0,1,1.24-6.31A55.8,55.8,0,0,0,52.63,44a4.57,4.57,0,0,0,.2-4.67A134.52,134.52,0,0,1,40.44,3.82,4.63,4.63,0,0,0,36.05,0h-.62A35.24,35.24,0,0,0,15.9,5.88h0l-1,.68c-.49.34-1,.69-1.42,1.06s-.64.49-.95.76c-.64.54-1.26,1.1-1.86,1.69-.28.27-.55.55-.82.84-.46.47-.9,1-1.33,1.45-.22.27-.45.52-.67.79-.54.66-1.05,1.35-1.54,2.06-.19.28-.39.56-.58.85-.5.77-1,1.55-1.43,2.36-.1.18-.18.37-.28.55-.38.72-.73,1.46-1.07,2.22l-.33.75c-.37.9-.7,1.81-1,2.73-.06.22-.12.44-.19.66C1.23,26.18,1,27,.82,27.92c0,.18-.09.35-.12.52-.2,1-.35,2-.47,3,0,.24-.05.48-.07.71C.07,33.27,0,34.34,0,35.43c0,.74,0,1.46.08,2.18h0A35.18,35.18,0,0,0,2.7,49a135.73,135.73,0,0,0,76.88,88.31,35.12,35.12,0,0,0,12.84,4.19l.18,0a37.9,37.9,0,0,0,4.15.25c1,0,2.08-.06,3.11-.15l.88-.09c.8-.09,1.58-.21,2.36-.35l.74-.13c1-.19,1.89-.43,2.81-.69.31-.09.6-.2.91-.3.63-.2,1.26-.42,1.87-.66l1.09-.43c.62-.26,1.23-.55,1.83-.85s1.11-.57,1.66-.88.88-.49,1.3-.76.91-.58,1.35-.88l.31-.22a36.29,36.29,0,0,0,5.44-4.69v0a35.31,35.31,0,0,0,5.37-7.38h0a35.4,35.4,0,0,0,3.79-10.71,4.65,4.65,0,0,0-3.34-5.21A135.16,135.16,0,0,1,93.4,91.17,4.73,4.73,0,0,0,88.06,91.29Z"/></g></g></svg>