<svg xmlns="http://www.w3.org/2000/svg" viewBox="0 0 17.72 14.17"><defs><style>.cls-1{fill:#d8d9d7;}</style></defs><g id="Layer_2" data-name="Layer 2"><g id="Logo"><path class="cls-1" d="M17.2.52A1.71,1.71,0,0,0,15.94,0H1.77A1.69,1.69,0,0,0,.52.52,1.69,1.69,0,0,0,0,1.77V12.4a1.68,1.68,0,0,0,.52,1.25,1.69,1.69,0,0,0,1.25.52H15.94a1.78,1.78,0,0,0,1.78-1.77V1.77A1.73,1.73,0,0,0,17.2.52Zm-1.34,3a.7.7,0,0,1-.27.27L9.32,7.68a.67.67,0,0,1-.23.1.66.66,0,0,1-.23,0,.62.62,0,0,1-.23,0,.72.72,0,0,1-.24-.1L2.13,3.76a.55.55,0,0,1-.27-.25.8.8,0,0,1-.09-.39.72.72,0,0,1,.38-.65.68.68,0,0,1,.77,0L8.86,6.2l5.93-3.72a.74.74,0,0,1,1.15.64A.75.75,0,0,1,15.86,3.49Z"/></g></g></svg>