<svg xmlns="http://www.w3.org/2000/svg" viewBox="0 0 24 21.44"><defs><style>.cls-1{fill:#ededed;}.cls-2{fill:#d8d9d7;}</style></defs><g id="Layer_2" data-name="Layer 2"><g id="Logo"><path class="cls-1" d="M1.81,18.38l1.06,1.83a2.53,2.53,0,0,0,.91.9l3.78-6.54H0a2.5,2.5,0,0,0,.33,1.24Z"/><path class="cls-2" d="M12,6.87,8.22.33a2.48,2.48,0,0,0-.91.91l-7,12.09A2.48,2.48,0,0,0,0,14.57H7.56Z"/><path class="cls-1" d="M20.22,21.11a2.53,2.53,0,0,0,.91-.9l.44-.76,2.1-3.64A2.5,2.5,0,0,0,24,14.57H16.44l1.61,3.16Z"/><path class="cls-1" d="M12,6.87,15.78.33A2.42,2.42,0,0,0,14.54,0H9.46A2.53,2.53,0,0,0,8.22.33Z"/><path class="cls-2" d="M16.44,14.57H7.56L3.78,21.11A2.42,2.42,0,0,0,5,21.44H19a2.53,2.53,0,0,0,1.24-.33Z"/><path class="cls-2" d="M20.18,7.29l-3.49-6a2.48,2.48,0,0,0-.91-.91L12,6.87l4.44,7.7H24a2.5,2.5,0,0,0-.33-1.24Z"/></g></g></svg>