<svg xmlns="http://www.w3.org/2000/svg" viewBox="0 0 14.17 14.17"><defs><style>.cls-1{fill:#d8d9d7;}</style></defs><g id="Layer_2" data-name="Layer 2"><g id="Logo"><path class="cls-1" d="M7.09,0C5.16,0,4.92,0,4.17,0A5.58,5.58,0,0,0,2.44.37a3.52,3.52,0,0,0-1.25.82A3.52,3.52,0,0,0,.37,2.44,5.58,5.58,0,0,0,0,4.17c0,.75,0,1,0,2.92S0,9.25,0,10a5.51,5.51,0,0,0,.33,1.72A3.52,3.52,0,0,0,1.19,13a3.39,3.39,0,0,0,1.25.82,5.05,5.05,0,0,0,1.73.33c.75,0,1,0,2.92,0s2.16,0,2.92,0a5,5,0,0,0,1.72-.33A3.39,3.39,0,0,0,13,13a3.31,3.31,0,0,0,.82-1.25A5,5,0,0,0,14.13,10c0-.76,0-1,0-2.92s0-2.17,0-2.92a5.05,5.05,0,0,0-.33-1.73A3.39,3.39,0,0,0,13,1.19,3.43,3.43,0,0,0,11.73.37,5.51,5.51,0,0,0,10,0C9.25,0,9,0,7.09,0Zm0,1.28c1.89,0,2.11,0,2.86,0a3.87,3.87,0,0,1,1.32.24,2.19,2.19,0,0,1,.81.53,2.23,2.23,0,0,1,.53.82,4,4,0,0,1,.25,1.31c0,.75,0,1,0,2.87s0,2.11-.05,2.86a3.81,3.81,0,0,1-.25,1.32,2.19,2.19,0,0,1-.53.81,2.11,2.11,0,0,1-.81.53,4.07,4.07,0,0,1-1.32.25c-.75,0-1,0-2.87,0s-2.12,0-2.87-.05a3.81,3.81,0,0,1-1.32-.25,2.15,2.15,0,0,1-.82-.53,2.24,2.24,0,0,1-.53-.81,4.14,4.14,0,0,1-.24-1.32c0-.75,0-1,0-2.86s0-2.12,0-2.87a4.14,4.14,0,0,1,.24-1.32,2.28,2.28,0,0,1,.53-.82,2.15,2.15,0,0,1,.82-.53,4,4,0,0,1,1.31-.25c.75,0,1,0,2.87,0Zm0,2.17a3.64,3.64,0,1,0,3.64,3.64A3.64,3.64,0,0,0,7.09,3.45Zm0,6A2.37,2.37,0,1,1,9.45,7.09,2.37,2.37,0,0,1,7.09,9.45ZM11.72,3.3a.85.85,0,1,1-.85-.85A.85.85,0,0,1,11.72,3.3Z"/></g></g></svg>