<svg xmlns="http://www.w3.org/2000/svg" viewBox="0 0 14.17 14.17"><defs><style>.cls-1{fill:#d8d9d7;}</style></defs><g id="Layer_2" data-name="Layer 2"><g id="Logo"><path class="cls-1" d="M13.16,0H1A1,1,0,0,0,0,1V13.15a1,1,0,0,0,1,1H13.16a1,1,0,0,0,1-1V1A1,1,0,0,0,13.16,0ZM4.28,12.15H2.18V5.38H4.29v6.77ZM3.23,4.46A1.22,1.22,0,1,1,4.45,3.24,1.22,1.22,0,0,1,3.23,4.46Zm8.93,7.69h-2.1V8.86c0-.79,0-1.8-1.09-1.8S7.7,7.92,7.7,8.8v3.35H5.6V5.38h2v.93h0a2.2,2.2,0,0,1,2-1.09c2.12,0,2.52,1.4,2.52,3.22v3.71Z"/></g></g></svg>