<svg xmlns="http://www.w3.org/2000/svg" viewBox="0 0 14.17 14.17"><defs><style>.cls-1{fill:#d8d9d7;}</style></defs><g id="Layer_2" data-name="Layer 2"><g id="Logo"><path class="cls-1" d="M7.09,14.17a6.89,6.89,0,0,1-2.75-.55,7.34,7.34,0,0,1-2.26-1.53A7.19,7.19,0,0,1,.56,9.83a7,7,0,0,1,0-5.5A7.38,7.38,0,0,1,2.08,2.08,7.31,7.31,0,0,1,4.34.56,6.9,6.9,0,0,1,7.09,0,6.83,6.83,0,0,1,9.84.56a7.15,7.15,0,0,1,2.25,1.52,7.41,7.41,0,0,1,1.53,2.25,6.91,6.91,0,0,1,.55,2.76,6.84,6.84,0,0,1-.55,2.74,7.24,7.24,0,0,1-3.78,3.79A6.82,6.82,0,0,1,7.09,14.17Zm0-1.45a9,9,0,0,0,.79-1.33,7.82,7.82,0,0,0,.55-1.47H5.74a7.82,7.82,0,0,0,.55,1.47A8.23,8.23,0,0,0,7.09,12.72Zm-1.85-.28a10.32,10.32,0,0,1-.55-1.22,9.33,9.33,0,0,1-.4-1.3H2.2a5.78,5.78,0,0,0,1.28,1.54A5.24,5.24,0,0,0,5.24,12.44Zm3.69,0a5.15,5.15,0,0,0,1.76-1A5.82,5.82,0,0,0,12,9.92H9.89a10.9,10.9,0,0,1-.4,1.3A10.37,10.37,0,0,1,8.93,12.44ZM1.59,8.5H4c0-.23-.06-.47-.08-.7s0-.47,0-.71,0-.49,0-.72S4,5.91,4,5.67H1.59c-.05.24-.1.47-.13.7a5.58,5.58,0,0,0,0,.72,5.53,5.53,0,0,0,0,.71C1.49,8,1.54,8.27,1.59,8.5Zm3.83,0H8.75c0-.23.06-.47.08-.7s0-.47,0-.71,0-.49,0-.72,0-.46-.08-.7H5.42c0,.24-.06.47-.08.7s0,.47,0,.72,0,.48,0,.71S5.39,8.27,5.42,8.5Zm4.75,0h2.41a5.73,5.73,0,0,0,.13-.7,5.14,5.14,0,0,0,0-1.43,6.11,6.11,0,0,0-.13-.7H10.17c0,.24.06.47.08.7s0,.47,0,.72,0,.48,0,.71S10.2,8.27,10.17,8.5ZM9.89,4.25H12a6,6,0,0,0-1.29-1.54,5,5,0,0,0-1.76-1A10.23,10.23,0,0,1,9.49,3,10.9,10.9,0,0,1,9.89,4.25Zm-4.15,0H8.43a7.82,7.82,0,0,0-.55-1.47,9.5,9.5,0,0,0-.79-1.33,8.69,8.69,0,0,0-.8,1.33A7.82,7.82,0,0,0,5.74,4.25Zm-3.54,0H4.29A9.33,9.33,0,0,1,4.69,3a10.18,10.18,0,0,1,.55-1.21,5.05,5.05,0,0,0-1.76,1A5.94,5.94,0,0,0,2.2,4.25Z"/></g></g></svg>