<svg xmlns="http://www.w3.org/2000/svg" viewBox="0 0 126.61 142.58"><defs><style>.cls-1{fill:#d8d9d7;}.cls-2{fill:none;stroke:#fff;stroke-linecap:round;stroke-miterlimit:10;stroke-width:1.7px;}</style></defs><g id="Layer_2" data-name="Layer 2"><g id="Logo"><path class="cls-1" d="M98.37,95.7c-1.14-4.26-6.56-7.43-12.75-3.23-5.92,4-10.87,7.45-13.86,9.54l-3.07,2.17c-11.82-1.2-15.5-5.45-16.92-6.84-3.24-3.16-6.34-6.29-10.94-6.29s-6.58-.09-12,0-16.45,6-28,11.29V140c6.69-4.38,23.24-14.79,27.09-14.79,3.55,0,32.59,16.56,37.51,16.56,8.94,0,49.79-29.5,57.25-34.55s.06-16.13-9.16-9.88l-1,.66c-1.14-4.26-6.57-7.43-12.76-3.23l-1.43,1"/><path class="cls-1" d="M105.67,39,94.36,36.25c-.2-.92-.44-1.83-.72-2.72l8.43-8a1,1,0,0,0,.18-1.2L99,18.78a1,1,0,0,0-1.12-.44l-11.16,3.3q-.95-1-2-2L88.09,8.5a1,1,0,0,0-.45-1.12L82.09,4.17a1,1,0,0,0-1.2.18l-8,8.43c-.89-.28-1.8-.52-2.72-.72L67.46.75A1,1,0,0,0,66.51,0H60.1a1,1,0,0,0-1,.75L56.43,12.06c-.92.2-1.82.44-2.71.72l-8-8.43a1,1,0,0,0-1.2-.18L39,7.38a1,1,0,0,0-.45,1.12l3.31,11.16c-.69.63-1.35,1.29-2,2l-11.15-3.3a1,1,0,0,0-1.12.44l-3.21,5.55a1,1,0,0,0,.18,1.2l8.43,8c-.28.89-.52,1.8-.72,2.72L20.94,39a1,1,0,0,0-.75.95v6.41a1,1,0,0,0,.75,1L32.25,50c.2.92.44,1.82.72,2.71l-8.43,8a1,1,0,0,0-.18,1.2l3.21,5.55a1,1,0,0,0,1.12.45l11.15-3.3c.64.69,1.3,1.35,2,2L38.52,77.73A1,1,0,0,0,39,78.86l5.55,3.2a1,1,0,0,0,1.2-.17l8-8.43c.89.28,1.79.51,2.71.72l2.72,11.31a1,1,0,0,0,1,.75h6.41a1,1,0,0,0,.95-.75l2.71-11.31c.92-.21,1.83-.44,2.72-.72l8,8.43a1,1,0,0,0,1.2.17l5.55-3.2a1,1,0,0,0,.45-1.13L84.78,66.58q1-.94,2-2l11.16,3.3A1,1,0,0,0,99,67.45l3.21-5.55a1,1,0,0,0-.18-1.2l-8.43-8c.28-.89.52-1.79.72-2.71l11.31-2.72a1,1,0,0,0,.75-1V39.91A1,1,0,0,0,105.67,39ZM63.3,52.41a9.29,9.29,0,1,1,9.3-9.29A9.29,9.29,0,0,1,63.3,52.41Z"/><path class="cls-2" d="M42.39,115.93s3.62-.16,11.19,1.81,7.89,1.56,22,1.56c13.9,0,14.81-14.72-.66-14.72-17.11,0-21.54-5.62-23.19-7.24-3.24-3.16-6.34-6.29-10.94-6.29s-6.58-.09-12,0-16.45,6-28,11.29"/><path class="cls-2" d="M.85,140c6.69-4.38,23.24-14.79,27.09-14.79,3.55,0,32.59,16.56,37.51,16.56,8.94,0,49.79-29.5,57.25-34.55s.06-16.13-9.16-9.88-31.31,20.55-31.31,20.55"/><path class="cls-2" d="M112.57,98c-1.14-4.26-6.57-7.43-12.76-3.23-9.79,6.64-16.92,11.71-16.92,11.71"/><path class="cls-2" d="M98.37,95.7c-1.14-4.26-6.56-7.43-12.75-3.23-9.79,6.64-16.93,11.71-16.93,11.71"/></g></g></svg>