<svg xmlns="http://www.w3.org/2000/svg" viewBox="0 0 14.11 14.17"><defs><style>.cls-1,.cls-2{fill:#d8d9d7;}.cls-2{fill-rule:evenodd;}</style></defs><g id="Layer_2" data-name="Layer 2"><g id="Logo"><path class="cls-1" d="M0,14.17l1-3.66A7.32,7.32,0,0,1,.06,7,7,7,0,0,1,7,0,7.23,7.23,0,0,1,9.74.53a7.6,7.6,0,0,1,2.31,1.54,6.72,6.72,0,0,1,1.53,2.3,6.87,6.87,0,0,1,.53,2.72,7,7,0,0,1-7,7h0a7.48,7.48,0,0,1-3.37-.82Zm3.9-2.24.17.12a5.82,5.82,0,0,0,8.8-5,5.85,5.85,0,1,0-10.8,3.13l.12.23-.6,2.13Z"/><path class="cls-1" d="M0,14.17l1-3.66A7.32,7.32,0,0,1,.06,7,7,7,0,0,1,7,0,7.23,7.23,0,0,1,9.74.53a7.6,7.6,0,0,1,2.31,1.54,6.72,6.72,0,0,1,1.53,2.3,6.87,6.87,0,0,1,.53,2.72,7,7,0,0,1-7,7h0a7.48,7.48,0,0,1-3.37-.82Zm3.9-2.24.17.12a5.82,5.82,0,0,0,8.8-5,5.85,5.85,0,1,0-10.8,3.13l.12.23-.6,2.13Z"/><path class="cls-2" d="M5.31,4.07a.38.38,0,0,0-.41-.29H4.55c-.12,0-.18,0-.24.06L4.13,4a1.92,1.92,0,0,0-.59,1.47,3.64,3.64,0,0,0,.71,1.83,7.19,7.19,0,0,0,3,2.66c1.48.59,1.78.47,2.13.41s1.06-.41,1.18-.82a3.11,3.11,0,0,0,.12-.83,1,1,0,0,0-.36-.18C10.16,8.5,9.27,8,9.15,8A.34.34,0,0,0,8.74,8c-.12.18-.47.59-.53.71s-.18.12-.36.06a4.41,4.41,0,0,1-1.41-.89,6,6,0,0,1-1-1.24.25.25,0,0,1,.06-.35A1.31,1.31,0,0,0,5.73,6a.86.86,0,0,1,.12-.35c0-.06.06-.12.06-.18a.22.22,0,0,0-.06-.18A6.63,6.63,0,0,1,5.31,4.07Z"/></g></g></svg>