<svg xmlns="http://www.w3.org/2000/svg" viewBox="0 0 14.17 10.04"><defs><style>.cls-1{fill:#d8d9d7;}</style></defs><g id="Layer_2" data-name="Layer 2"><g id="Logo"><path class="cls-1" d="M13.88,1.57A1.8,1.8,0,0,0,12.62.3,41.68,41.68,0,0,0,7.09,0,41.81,41.81,0,0,0,1.55.3,1.77,1.77,0,0,0,.3,1.57,18.64,18.64,0,0,0,0,5,18.64,18.64,0,0,0,.3,8.47,1.78,1.78,0,0,0,1.55,9.74a41.81,41.81,0,0,0,5.54.3,41.68,41.68,0,0,0,5.53-.3,1.81,1.81,0,0,0,1.26-1.27A19.26,19.26,0,0,0,14.17,5,19.26,19.26,0,0,0,13.88,1.57ZM5.64,7.14V2.9L9.34,5Z"/></g></g></svg>