<?xml version="1.0" encoding="UTF-8" standalone="no"?>
<svg
   xmlns:dc="http://purl.org/dc/elements/1.1/"
   xmlns:cc="http://creativecommons.org/ns#"
   xmlns:rdf="http://www.w3.org/1999/02/22-rdf-syntax-ns#"
   xmlns:svg="http://www.w3.org/2000/svg"
   xmlns="http://www.w3.org/2000/svg"
   xmlns:sodipodi="http://sodipodi.sourceforge.net/DTD/sodipodi-0.dtd"
   xmlns:inkscape="http://www.inkscape.org/namespaces/inkscape"
   viewBox="52 42 88 66"
   version="1.1"
   id="svg12"
   sodipodi:docname="gmail.svg"
   inkscape:version="1.0.1 (3bc2e813f5, 2020-09-07, custom)">
  <metadata
     id="metadata18">
    <rdf:RDF>
      <cc:Work
         rdf:about="">
        <dc:format>image/svg+xml</dc:format>
        <dc:type
           rdf:resource="http://purl.org/dc/dcmitype/StillImage" />
      </cc:Work>
    </rdf:RDF>
  </metadata>
  <defs
     id="defs16" />
  <sodipodi:namedview
     pagecolor="#ffffff"
     bordercolor="#666666"
     borderopacity="1"
     objecttolerance="10"
     gridtolerance="10"
     guidetolerance="10"
     inkscape:pageopacity="0"
     inkscape:pageshadow="2"
     inkscape:window-width="1920"
     inkscape:window-height="1024"
     id="namedview14"
     showgrid="false"
     inkscape:zoom="12.712121"
     inkscape:cx="44"
     inkscape:cy="33"
     inkscape:window-x="0"
     inkscape:window-y="28"
     inkscape:window-maximized="1"
     inkscape:current-layer="svg12" />
  <path
     fill="#4285f4"
     d="M58 108h14V74L52 59v43c0 3.32 2.69 6 6 6"
     id="path2"
     style="fill:#ffffff" />
  <path
     fill="#34a853"
     d="M120 108h14c3.32 0 6-2.69 6-6V59l-20 15"
     id="path4"
     style="fill:#ffffff" />
  <path
     fill="#fbbc04"
     d="M120 48v26l20-15v-8c0-7.42-8.47-11.65-14.4-7.2"
     id="path6"
     style="fill:#ffffff" />
  <path
     fill="#ea4335"
     d="M72 74V48l24 18 24-18v26L96 92"
     id="path8"
     style="fill:#ffffff" />
  <path
     fill="#c5221f"
     d="M52 51v8l20 15V48l-5.6-4.2c-5.94-4.45-14.4-.22-14.4 7.2"
     id="path10"
     style="fill:#ffffff" />
</svg>
