<svg xmlns="http://www.w3.org/2000/svg" viewBox="0 0 74.85 30.97"><defs><style>.cls-1{fill:#fff;}</style></defs><g id="Layer_2" data-name="Layer 2"><g id="Logo"><path class="cls-1" d="M65.53,29.5a49.44,49.44,0,0,1-9.18-1.32c-6.09-1.34-12.13-3.22-18.58-4a73.52,73.52,0,0,0-9.61-.43,86.62,86.62,0,0,0-9.54.8A163,163,0,0,0,0,28.23c6.32-.39,12.59-1.09,18.84-1.5a97.84,97.84,0,0,1,18.6.25,92.75,92.75,0,0,1,9.17,1.61c3.09.6,6.18,1.3,9.34,1.76a41.68,41.68,0,0,0,9.61.54,32.85,32.85,0,0,0,9.29-2.22A43.38,43.38,0,0,1,65.53,29.5Z"/><path class="cls-1" d="M34.11,13.18c-.68-.11-1.37-.2-2-.29-1.12-.13-2.38-.23-3.72-.31v3.74c2,.05,3.94.16,5.76.35Z"/><path class="cls-1" d="M27.35,12.53c-1.8-.09-3.74-.13-5.76-.13v4c1.94-.06,3.87-.08,5.76-.05Z"/><path class="cls-1" d="M40.87,14.6l-1.34-.34c-1.47-.36-3-.66-4.42-.91V16.8c1.92.23,3.84.56,5.76,1Z"/><path class="cls-1" d="M20.59,12.4c-1.88,0-3.82,0-5.77.09v4.2c1.9-.13,3.83-.24,5.77-.31Z"/><path class="cls-1" d="M47.63,16.59q-2.77-.93-5.76-1.74V18l.2,0c2,.46,3.82.91,5.56,1.37Z"/><path class="cls-1" d="M54.39,16.69l-.49-.33a42.84,42.84,0,0,0-5.27-3v2.36c2,.7,4,1.45,5.76,2.24Z"/><path class="cls-1" d="M47.63,12.9a59.47,59.47,0,0,0-5.76-2.26v3c2,.52,3.91,1.1,5.76,1.71Z"/><path class="cls-1" d="M34.11,8.55C32.64,8.24,31.16,8,29.7,7.8q-.63-.09-1.35-.15v3.79c1.4.08,2.7.18,3.85.32l1.91.26Z"/><path class="cls-1" d="M13.82,12.52c-1.94.06-3.87.14-5.76.24v4.5c1.84-.18,3.77-.35,5.76-.5Z"/><path class="cls-1" d="M54.39,19.21c-1.79-.8-3.72-1.57-5.76-2.28v2.7c2.07.55,4,1.09,5.76,1.6Z"/><path class="cls-1" d="M40.87,10.31c-1.88-.6-3.81-1.12-5.76-1.55v3.43c1.56.27,3.13.58,4.68,1l1.08.27Z"/><path class="cls-1" d="M13.82,7.2c-1.91,0-3.85,0-5.76,0v4.37c1.89-.1,3.82-.18,5.76-.24Z"/><path class="cls-1" d="M27.35,7.56c-1.67-.13-3.63-.22-5.76-.27v4c2,0,4,.05,5.76.13Z"/><path class="cls-1" d="M20.59,7.26c-1.84,0-3.78-.06-5.77-.06v4.15c1.95,0,3.89-.09,5.77-.09Z"/><path class="cls-1" d="M7.06,18.65c-2.1.22-4,.45-5.76.66v5l5.76-.89Z"/><path class="cls-1" d="M28.35,21.29q2.88,0,5.76.15V18c-1.82-.19-3.76-.31-5.76-.36Z"/><path class="cls-1" d="M35.11,21.52c1.91.15,3.82.37,5.76.69V19.07q-2.88-.63-5.76-1Z"/><path class="cls-1" d="M21.59,21.61q2.91-.24,5.76-.3V17.58c-1.89,0-3.82,0-5.76,0Z"/><path class="cls-1" d="M41.87,22.37c.82.15,1.65.31,2.48.49l3.28.72V20.69c-1.8-.47-3.71-1-5.76-1.42Z"/><path class="cls-1" d="M14.82,22.3c2-.24,3.88-.45,5.77-.62v-4c-1.94.07-3.87.18-5.77.31Z"/><path class="cls-1" d="M48.63,23.81l.55.12c1.87.42,3.59.8,5.21,1.14v-2.5c-1.77-.52-3.68-1.07-5.76-1.62Z"/><path class="cls-1" d="M8.06,23.24c2-.3,3.89-.57,5.76-.81V18c-2,.15-3.92.32-5.76.51Z"/><path class="cls-1" d="M7.06,12.81c-2,.11-4,.24-5.76.37V18C3,17.81,5,17.58,7.06,17.37Z"/><path class="cls-1" d="M7.06,7.27c-2,0-3.94.08-5.76.13V12c1.8-.13,3.75-.26,5.76-.37Z"/><path class="cls-1" d="M29.7,5c8.83,1.16,18.15,4.65,24.24,8.77l.45.31V12.17C52.58,11,46,7.06,45.42,6.43c-2-2.13-4.73-4.73-7-5.47-4.8-1.6-8.56-.95-12.72.12-4.91,1.26-5.32,1.35-8.24,1.33C9,2.34,6.94,2.26,1.3,2.61v2C10.82,4.3,23.8,4.19,29.7,5Z"/></g></g></svg>